<svg width="35" height="44" viewBox="0 0 35 44" fill="none" xmlns="http://www.w3.org/2000/svg">
<path d="M17.2676 4.0459C18.4486 6.57721 20.0349 8.92021 22.0195 11.0723C22.9347 12.0651 24.7182 13.9941 27.3691 16.8574V16.8584C30.4077 20.1407 32.5993 24.2105 32.9824 28.4648C33.2828 31.7976 32.2667 35.3754 29.8564 37.8174L29.6191 38.0498C27.5165 40.0416 24.9433 41.3701 21.8545 42.0176L21.2305 42.1377C18.288 42.6561 15.4298 42.6164 12.6455 42.0283C7.93231 41.0322 3.96839 38.1506 2.36816 34.293L1.85742 32.832L1.60547 31.3428C0.964198 26.13 3.3074 21.4054 7.0293 17.0479L7.02832 17.0469C7.20098 16.8457 7.66557 16.341 8.42773 15.5244L11.6318 12.1182C13.9459 9.66912 15.8941 7.01498 17.2676 4.0459Z" stroke="#FFA201" stroke-width="3"/>
<mask id="path-2-inside-1_96_1753" fill="white">
<path d="M17.9758 12.5313C19.3867 14.9887 21.2794 17.1828 23.2174 19.5595C24.6247 21.2863 25.733 23.1657 26.5423 25.1977C26.6967 25.5867 26.9203 26.545 27.2131 28.0726C27.2297 28.1577 27.2653 28.2389 27.3178 28.3115C27.3702 28.3841 27.4385 28.4465 27.5185 28.495C27.5985 28.5434 27.6886 28.577 27.7834 28.5937C27.8782 28.6104 27.9758 28.6098 28.0703 28.592L28.1022 28.5873C28.3018 28.5496 28.4788 28.448 28.5996 28.3019C28.7203 28.1558 28.7764 27.9754 28.7571 27.795C28.466 25.0151 27.3613 22.4952 25.4428 20.2355C24.11 18.6669 22.6672 17.1488 21.1144 15.6813C20.3885 14.9966 19.912 14.5159 19.6848 14.2391C19.3033 13.7711 18.778 13.1765 18.1089 12.4554C18.0963 12.4425 18.079 12.4341 18.06 12.4316C18.041 12.4292 18.0217 12.4329 18.0056 12.4421C17.9894 12.4513 17.9775 12.4654 17.9721 12.4818C17.9666 12.4982 17.9679 12.5157 17.9758 12.5313Z"/>
</mask>
<path d="M17.9758 12.5313L16.1912 13.4342L16.215 13.4813L16.2413 13.5271L17.9758 12.5313ZM23.2174 19.5595L24.7677 18.296L24.7674 18.2956L23.2174 19.5595ZM26.5423 25.1977L28.4012 24.4599L28.4003 24.4577L26.5423 25.1977ZM27.2131 28.0726L25.2489 28.4491L25.25 28.4551L27.2131 28.0726ZM28.0703 28.592L27.7766 26.6137L27.7384 26.6194L27.7003 26.6265L28.0703 28.592ZM28.1022 28.5873L28.3959 30.5656L28.4347 30.5599L28.4732 30.5526L28.1022 28.5873ZM28.7571 27.795L26.7679 28.0033L26.7685 28.0082L28.7571 27.795ZM25.4428 20.2355L26.9675 18.9411L26.967 18.9406L25.4428 20.2355ZM21.1144 15.6813L22.488 14.2277L22.4867 14.2265L21.1144 15.6813ZM19.6848 14.2391L18.1346 15.5028L18.139 15.5081L19.6848 14.2391ZM18.1089 12.4554L19.575 11.0951L19.5583 11.077L19.5411 11.0594L18.1089 12.4554ZM17.9758 12.5313L16.2413 13.5271C17.7552 16.1639 19.7873 18.5177 21.6673 20.8234L23.2174 19.5595L24.7674 18.2956C22.7715 15.8479 21.0182 13.8135 19.7103 11.5355L17.9758 12.5313ZM23.2174 19.5595L21.667 20.823C22.9481 22.395 23.9517 24.0984 24.6842 25.9377L26.5423 25.1977L28.4003 24.4577C27.5143 22.2331 26.3013 20.1777 24.7677 18.296L23.2174 19.5595ZM26.5423 25.1977L24.6833 25.9355C24.6823 25.933 24.6881 25.9476 24.7003 25.9853C24.7121 26.0217 24.7271 26.0714 24.7454 26.1365C24.7822 26.2677 24.8264 26.4413 24.8781 26.6627C24.9815 27.1056 25.1049 27.6983 25.2489 28.4491L27.2131 28.0726L29.1773 27.696C28.8961 26.2291 28.6402 25.0621 28.4012 24.4599L26.5423 25.1977ZM27.2131 28.0726L25.25 28.4551C25.324 28.8345 25.4803 29.1836 25.697 29.4834L27.3177 28.3115L28.9385 27.1396C29.0503 27.2943 29.1354 27.4808 29.1762 27.69L27.2131 28.0726ZM27.3177 28.3115L25.697 29.4834C25.9132 29.7824 26.1835 30.0245 26.482 30.2054L27.5185 28.495L28.5551 26.7845C28.6935 26.8684 28.8272 26.9858 28.9385 27.1396L27.3177 28.3115ZM27.5185 28.495L26.482 30.2054C26.7801 30.386 27.1052 30.5051 27.4369 30.5635L27.7834 28.5937L28.13 26.624C28.2721 26.649 28.417 26.7008 28.5551 26.7845L27.5185 28.495ZM27.7834 28.5937L27.4369 30.5635C27.7686 30.6218 28.1089 30.6199 28.4402 30.5575L28.0703 28.592L27.7003 26.6265C27.8427 26.5997 27.9879 26.599 28.13 26.624L27.7834 28.5937ZM28.0703 28.592L28.3639 30.5704L28.3959 30.5656L28.1022 28.5873L27.8086 26.609L27.7766 26.6137L28.0703 28.592ZM28.1022 28.5873L28.4732 30.5526C29.0965 30.4349 29.7008 30.1089 30.1411 29.5762L28.5996 28.3019L27.058 27.0277C27.2568 26.7872 27.5071 26.6643 27.7312 26.622L28.1022 28.5873ZM28.5996 28.3019L30.1411 29.5762C30.5879 29.0357 30.8253 28.3245 30.7457 27.5819L28.7571 27.795L26.7685 28.0082C26.7275 27.6263 26.8528 27.276 27.058 27.0277L28.5996 28.3019ZM28.7571 27.795L30.7462 27.5868C30.4106 24.3815 29.13 21.4883 26.9675 18.9411L25.4428 20.2355L23.9182 21.5299C25.5926 23.5022 26.5214 25.6487 26.768 28.0033L28.7571 27.795ZM25.4428 20.2355L26.967 18.9406C25.5852 17.3142 24.0919 15.7434 22.488 14.2277L21.1144 15.6813L19.7407 17.1349C21.2425 18.5542 22.6349 20.0195 23.9187 21.5305L25.4428 20.2355ZM21.1144 15.6813L22.4867 14.2265C21.7504 13.5319 21.3651 13.1339 21.2307 12.9702L19.6848 14.2391L18.139 15.5081C18.4589 15.8978 19.0266 16.4613 19.742 17.1361L21.1144 15.6813ZM19.6848 14.2391L21.235 12.9755C20.8151 12.4603 20.2576 11.8307 19.575 11.0951L18.1089 12.4554L16.6428 13.8157C17.2984 14.5223 17.7914 15.0818 18.1346 15.5028L19.6848 14.2391ZM18.1089 12.4554L19.5411 11.0594C19.1933 10.7026 18.7516 10.504 18.3148 10.4479L18.06 12.4316L17.8052 14.4153C17.4064 14.3641 16.9993 14.1824 16.6767 13.8514L18.1089 12.4554ZM18.06 12.4316L18.3148 10.4479C17.8784 10.3919 17.42 10.4737 17.0148 10.7048L18.0056 12.4421L18.9963 14.1795C18.6234 14.3922 18.2036 14.4665 17.8052 14.4153L18.06 12.4316ZM18.0056 12.4421L17.0148 10.7048C16.6065 10.9376 16.2487 11.3277 16.0749 11.8488L17.9721 12.4818L19.8692 13.1148C19.7063 13.6031 19.3723 13.9651 18.9963 14.1795L18.0056 12.4421ZM17.9721 12.4818L16.0749 11.8488C15.8984 12.3777 15.9452 12.9479 16.1912 13.4342L17.9758 12.5313L19.7604 11.6285C19.9906 12.0835 20.0348 12.6186 19.8692 13.1148L17.9721 12.4818Z" fill="#FFA201" mask="url(#path-2-inside-1_96_1753)"/>
</svg>
